<mxfile host="app.diagrams.net" modified="2023-05-09T13:25:03.930Z" agent="Mozilla/5.0 (Windows NT 10.0; Win64; x64) AppleWebKit/537.36 (KHTML, like Gecko) Chrome/113.0.0.0 Safari/537.36 Edg/113.0.1774.35" etag="_gW4NPX68bg_yyI1gk0B" version="21.2.9" type="device">
  <diagram name="Page-1" id="13e1069c-82ec-6db2-03f1-153e76fe0fe0">
    <mxGraphModel dx="1379" dy="802" grid="1" gridSize="10" guides="1" tooltips="1" connect="1" arrows="1" fold="1" page="1" pageScale="1" pageWidth="1100" pageHeight="850" background="none" math="0" shadow="0">
      <root>
        <mxCell id="0" />
        <mxCell id="1" parent="0" />
        <mxCell id="7baba1c4bc27f4b0-2" value="route 1&lt;br&gt;10.208.64.1" style="shape=umlLifeline;perimeter=lifelinePerimeter;whiteSpace=wrap;html=1;container=1;collapsible=0;recursiveResize=0;outlineConnect=0;rounded=1;shadow=0;comic=0;labelBackgroundColor=none;strokeWidth=1;fontFamily=Verdana;fontSize=12;align=center;" parent="1" vertex="1">
          <mxGeometry x="270" y="60" width="100" height="580" as="geometry" />
        </mxCell>
        <mxCell id="7baba1c4bc27f4b0-10" value="" style="html=1;points=[];perimeter=orthogonalPerimeter;rounded=0;shadow=0;comic=0;labelBackgroundColor=none;strokeWidth=1;fontFamily=Verdana;fontSize=12;align=center;" parent="7baba1c4bc27f4b0-2" vertex="1">
          <mxGeometry x="45" y="100" width="10" height="400" as="geometry" />
        </mxCell>
        <mxCell id="aCfiJ5gvJvRHVbpXt20p-46" value="ttl=2" style="html=1;verticalAlign=bottom;endArrow=block;edgeStyle=elbowEdgeStyle;elbow=vertical;curved=0;rounded=0;" edge="1" parent="7baba1c4bc27f4b0-2" target="aCfiJ5gvJvRHVbpXt20p-21">
          <mxGeometry width="80" relative="1" as="geometry">
            <mxPoint x="-105" y="180" as="sourcePoint" />
            <mxPoint x="45" y="180" as="targetPoint" />
            <Array as="points">
              <mxPoint x="120" y="180" />
              <mxPoint x="-20" y="180" />
            </Array>
          </mxGeometry>
        </mxCell>
        <mxCell id="7baba1c4bc27f4b0-8" value="PC&lt;br&gt;10.208.110.101" style="shape=umlLifeline;perimeter=lifelinePerimeter;whiteSpace=wrap;html=1;container=1;collapsible=0;recursiveResize=0;outlineConnect=0;rounded=1;shadow=0;comic=0;labelBackgroundColor=none;strokeWidth=1;fontFamily=Verdana;fontSize=12;align=center;" parent="1" vertex="1">
          <mxGeometry x="110" y="60" width="100" height="580" as="geometry" />
        </mxCell>
        <mxCell id="7baba1c4bc27f4b0-9" value="" style="html=1;points=[];perimeter=orthogonalPerimeter;rounded=0;shadow=0;comic=0;labelBackgroundColor=none;strokeWidth=1;fontFamily=Verdana;fontSize=12;align=center;" parent="7baba1c4bc27f4b0-8" vertex="1">
          <mxGeometry x="45" y="100" width="10" height="400" as="geometry" />
        </mxCell>
        <mxCell id="aCfiJ5gvJvRHVbpXt20p-18" value="seu.edu.cn&lt;br&gt;121.194.14.142" style="shape=umlLifeline;perimeter=lifelinePerimeter;whiteSpace=wrap;html=1;container=1;collapsible=0;recursiveResize=0;outlineConnect=0;rounded=1;shadow=0;comic=0;labelBackgroundColor=none;strokeWidth=1;fontFamily=Verdana;fontSize=12;align=center;" vertex="1" parent="1">
          <mxGeometry x="830" y="60" width="100" height="580" as="geometry" />
        </mxCell>
        <mxCell id="aCfiJ5gvJvRHVbpXt20p-19" value="" style="html=1;points=[];perimeter=orthogonalPerimeter;rounded=0;shadow=0;comic=0;labelBackgroundColor=none;strokeWidth=1;fontFamily=Verdana;fontSize=12;align=center;" vertex="1" parent="aCfiJ5gvJvRHVbpXt20p-18">
          <mxGeometry x="45" y="100" width="10" height="400" as="geometry" />
        </mxCell>
        <mxCell id="aCfiJ5gvJvRHVbpXt20p-20" value="route 2&lt;br&gt;10.208.128.141" style="shape=umlLifeline;perimeter=lifelinePerimeter;whiteSpace=wrap;html=1;container=1;collapsible=0;recursiveResize=0;outlineConnect=0;rounded=1;shadow=0;comic=0;labelBackgroundColor=none;strokeWidth=1;fontFamily=Verdana;fontSize=12;align=center;" vertex="1" parent="1">
          <mxGeometry x="430" y="60" width="100" height="580" as="geometry" />
        </mxCell>
        <mxCell id="aCfiJ5gvJvRHVbpXt20p-21" value="" style="html=1;points=[];perimeter=orthogonalPerimeter;rounded=0;shadow=0;comic=0;labelBackgroundColor=none;strokeWidth=1;fontFamily=Verdana;fontSize=12;align=center;" vertex="1" parent="aCfiJ5gvJvRHVbpXt20p-20">
          <mxGeometry x="45" y="100" width="10" height="400" as="geometry" />
        </mxCell>
        <mxCell id="aCfiJ5gvJvRHVbpXt20p-50" value="ttl=11" style="html=1;verticalAlign=bottom;endArrow=block;edgeStyle=elbowEdgeStyle;elbow=vertical;curved=0;rounded=0;" edge="1" parent="aCfiJ5gvJvRHVbpXt20p-20" target="aCfiJ5gvJvRHVbpXt20p-19">
          <mxGeometry width="80" relative="1" as="geometry">
            <mxPoint x="-265" y="420" as="sourcePoint" />
            <mxPoint x="205" y="420" as="targetPoint" />
            <Array as="points">
              <mxPoint x="-40" y="420" />
              <mxPoint x="-180" y="420" />
            </Array>
          </mxGeometry>
        </mxCell>
        <mxCell id="aCfiJ5gvJvRHVbpXt20p-51" value="Echo (ping) reply" style="html=1;verticalAlign=bottom;endArrow=block;edgeStyle=elbowEdgeStyle;elbow=vertical;curved=0;rounded=0;" edge="1" parent="aCfiJ5gvJvRHVbpXt20p-20" source="aCfiJ5gvJvRHVbpXt20p-19">
          <mxGeometry width="80" relative="1" as="geometry">
            <mxPoint x="205" y="460" as="sourcePoint" />
            <mxPoint x="-265" y="460" as="targetPoint" />
            <Array as="points">
              <mxPoint x="-20" y="460" />
              <mxPoint x="-175" y="450" />
            </Array>
          </mxGeometry>
        </mxCell>
        <mxCell id="aCfiJ5gvJvRHVbpXt20p-22" value="route 3&lt;br&gt;10.208.128.149" style="shape=umlLifeline;perimeter=lifelinePerimeter;whiteSpace=wrap;html=1;container=1;collapsible=0;recursiveResize=0;outlineConnect=0;rounded=1;shadow=0;comic=0;labelBackgroundColor=none;strokeWidth=1;fontFamily=Verdana;fontSize=12;align=center;" vertex="1" parent="1">
          <mxGeometry x="590" y="60" width="100" height="580" as="geometry" />
        </mxCell>
        <mxCell id="aCfiJ5gvJvRHVbpXt20p-23" value="" style="html=1;points=[];perimeter=orthogonalPerimeter;rounded=0;shadow=0;comic=0;labelBackgroundColor=none;strokeWidth=1;fontFamily=Verdana;fontSize=12;align=center;" vertex="1" parent="aCfiJ5gvJvRHVbpXt20p-22">
          <mxGeometry x="45" y="100" width="10" height="400" as="geometry" />
        </mxCell>
        <mxCell id="aCfiJ5gvJvRHVbpXt20p-43" value="ttl=1" style="html=1;verticalAlign=bottom;endArrow=block;edgeStyle=elbowEdgeStyle;elbow=vertical;curved=0;rounded=0;" edge="1" parent="1" source="7baba1c4bc27f4b0-9" target="7baba1c4bc27f4b0-10">
          <mxGeometry width="80" relative="1" as="geometry">
            <mxPoint x="150" y="220" as="sourcePoint" />
            <mxPoint x="230" y="220" as="targetPoint" />
            <Array as="points">
              <mxPoint x="250" y="160" />
            </Array>
          </mxGeometry>
        </mxCell>
        <mxCell id="aCfiJ5gvJvRHVbpXt20p-45" value="time-to-live exceed" style="html=1;verticalAlign=bottom;endArrow=block;edgeStyle=elbowEdgeStyle;elbow=vertical;curved=0;rounded=0;" edge="1" parent="1" source="7baba1c4bc27f4b0-10" target="7baba1c4bc27f4b0-9">
          <mxGeometry width="80" relative="1" as="geometry">
            <mxPoint x="320" y="190" as="sourcePoint" />
            <mxPoint x="170" y="190" as="targetPoint" />
            <Array as="points">
              <mxPoint x="270" y="200" />
              <mxPoint x="255" y="190" />
            </Array>
          </mxGeometry>
        </mxCell>
        <mxCell id="aCfiJ5gvJvRHVbpXt20p-47" value="time-to-live exceed" style="html=1;verticalAlign=bottom;endArrow=block;edgeStyle=elbowEdgeStyle;elbow=vertical;curved=0;rounded=0;" edge="1" parent="1" source="aCfiJ5gvJvRHVbpXt20p-21" target="7baba1c4bc27f4b0-9">
          <mxGeometry width="80" relative="1" as="geometry">
            <mxPoint x="315" y="270" as="sourcePoint" />
            <mxPoint x="165" y="270" as="targetPoint" />
            <Array as="points">
              <mxPoint x="410" y="280" />
              <mxPoint x="255" y="270" />
            </Array>
          </mxGeometry>
        </mxCell>
        <mxCell id="aCfiJ5gvJvRHVbpXt20p-48" value="ttl=3" style="html=1;verticalAlign=bottom;endArrow=block;edgeStyle=elbowEdgeStyle;elbow=vertical;curved=0;rounded=0;" edge="1" parent="1" target="aCfiJ5gvJvRHVbpXt20p-23">
          <mxGeometry width="80" relative="1" as="geometry">
            <mxPoint x="165" y="320" as="sourcePoint" />
            <mxPoint x="475" y="320" as="targetPoint" />
            <Array as="points">
              <mxPoint x="390" y="320" />
              <mxPoint x="250" y="320" />
            </Array>
          </mxGeometry>
        </mxCell>
        <mxCell id="aCfiJ5gvJvRHVbpXt20p-49" value="time-to-live exceed" style="html=1;verticalAlign=bottom;endArrow=block;edgeStyle=elbowEdgeStyle;elbow=vertical;curved=0;rounded=0;" edge="1" parent="1" source="aCfiJ5gvJvRHVbpXt20p-23">
          <mxGeometry width="80" relative="1" as="geometry">
            <mxPoint x="475" y="360" as="sourcePoint" />
            <mxPoint x="165" y="360" as="targetPoint" />
            <Array as="points">
              <mxPoint x="410" y="360" />
              <mxPoint x="255" y="350" />
            </Array>
          </mxGeometry>
        </mxCell>
        <mxCell id="aCfiJ5gvJvRHVbpXt20p-52" value="" style="endArrow=none;dashed=1;html=1;dashPattern=1 3;strokeWidth=2;rounded=0;" edge="1" parent="1">
          <mxGeometry width="50" height="50" relative="1" as="geometry">
            <mxPoint x="720" y="80" as="sourcePoint" />
            <mxPoint x="800" y="80" as="targetPoint" />
          </mxGeometry>
        </mxCell>
        <mxCell id="aCfiJ5gvJvRHVbpXt20p-53" value="" style="endArrow=none;dashed=1;html=1;dashPattern=1 3;strokeWidth=2;rounded=0;" edge="1" parent="1">
          <mxGeometry width="50" height="50" relative="1" as="geometry">
            <mxPoint x="720" y="320" as="sourcePoint" />
            <mxPoint x="800" y="320" as="targetPoint" />
          </mxGeometry>
        </mxCell>
        <mxCell id="aCfiJ5gvJvRHVbpXt20p-54" value="" style="endArrow=none;dashed=1;html=1;dashPattern=1 3;strokeWidth=2;rounded=0;" edge="1" parent="1">
          <mxGeometry width="50" height="50" relative="1" as="geometry">
            <mxPoint x="240" y="390" as="sourcePoint" />
            <mxPoint x="240" y="460" as="targetPoint" />
          </mxGeometry>
        </mxCell>
        <mxCell id="aCfiJ5gvJvRHVbpXt20p-55" value="route 4 - 10" style="text;html=1;align=center;verticalAlign=middle;resizable=0;points=[];autosize=1;strokeColor=none;fillColor=none;" vertex="1" parent="1">
          <mxGeometry x="720" y="80" width="80" height="30" as="geometry" />
        </mxCell>
      </root>
    </mxGraphModel>
  </diagram>
</mxfile>
